<?xml version="1.0" encoding="UTF-8" standalone="no"?>
<!DOCTYPE svg PUBLIC "-//W3C//DTD SVG 1.1//EN" "http://www.w3.org/Graphics/SVG/1.1/DTD/svg11.dtd">
<svg width="128.00" height="128.00" viewBox="0.00 0.00 128.00 128.00" xmlns="http://www.w3.org/2000/svg" xmlns:xlink="http://www.w3.org/1999/xlink">
<g stroke-linecap="round" id="レイヤー_1">
<path d="M4.62,54.63 Q28.61,78.83 50.87,54.74" fill="none" stroke="rgb(34, 30, 31)" stroke-width="4.00" stroke-opacity="1.00" stroke-linejoin="round"/>
<path d="M78.72,54.95 Q101.31,79.15 125.29,55.60" fill="none" stroke="rgb(34, 30, 31)" stroke-width="4.00" stroke-opacity="1.00" stroke-linejoin="round"/>
<path d="M3.12,67.75 L10.43,60.65" fill="none" stroke="rgb(34, 30, 31)" stroke-width="4.00" stroke-opacity="1.00" stroke-linejoin="round"/>
<path d="M17.53,65.60 L15.06,75.93" fill="none" stroke="rgb(34, 30, 31)" stroke-width="4.00" stroke-opacity="1.00" stroke-linejoin="round"/>
<path d="M27.64,67.75 L27.42,77.97" fill="none" stroke="rgb(34, 30, 31)" stroke-width="4.00" stroke-opacity="1.00" stroke-linejoin="round"/>
<path d="M37.10,65.49 L40.65,76.03" fill="none" stroke="rgb(34, 30, 31)" stroke-width="4.00" stroke-opacity="1.00" stroke-linejoin="round"/>
<path d="M45.28,60.55 L51.84,67.00" fill="none" stroke="rgb(34, 30, 31)" stroke-width="4.00" stroke-opacity="1.00" stroke-linejoin="round"/>
<path d="M84.42,72.38 L77.65,79.04" fill="none" stroke="rgb(34, 30, 31)" stroke-width="4.00" stroke-opacity="1.00" stroke-linejoin="round"/>
<path d="M91.09,76.46 L88.29,87.00" fill="none" stroke="rgb(34, 30, 31)" stroke-width="4.00" stroke-opacity="1.00" stroke-linejoin="round"/>
<path d="M101.63,79.04 L101.20,89.48" fill="none" stroke="rgb(34, 30, 31)" stroke-width="4.00" stroke-opacity="1.00" stroke-linejoin="round"/>
<path d="M111.41,76.57 L114.53,87.43" fill="none" stroke="rgb(34, 30, 31)" stroke-width="4.00" stroke-opacity="1.00" stroke-linejoin="round"/>
<path d="M118.41,72.48 L125.93,78.61" fill="none" stroke="rgb(34, 30, 31)" stroke-width="4.00" stroke-opacity="1.00" stroke-linejoin="round"/>
<path d="M4.62,54.63 Q28.61,78.83 50.87,54.74" fill="none" stroke="rgb(34, 30, 31)" stroke-width="4.00" stroke-opacity="1.00" stroke-linejoin="round"/>
<path d="M78.72,54.95 Q101.31,79.15 125.29,55.60" fill="none" stroke="rgb(34, 30, 31)" stroke-width="4.00" stroke-opacity="1.00" stroke-linejoin="round"/>
<path d="M3.12,67.75 L10.43,60.65" fill="none" stroke="rgb(34, 30, 31)" stroke-width="4.00" stroke-opacity="1.00" stroke-linejoin="round"/>
<path d="M17.53,65.60 L15.06,75.93" fill="none" stroke="rgb(34, 30, 31)" stroke-width="4.00" stroke-opacity="1.00" stroke-linejoin="round"/>
<path d="M27.64,67.75 L27.42,77.97" fill="none" stroke="rgb(34, 30, 31)" stroke-width="4.00" stroke-opacity="1.00" stroke-linejoin="round"/>
<path d="M37.10,65.49 L40.65,76.03" fill="none" stroke="rgb(34, 30, 31)" stroke-width="4.00" stroke-opacity="1.00" stroke-linejoin="round"/>
<path d="M45.28,60.55 L51.84,67.00" fill="none" stroke="rgb(34, 30, 31)" stroke-width="4.00" stroke-opacity="1.00" stroke-linejoin="round"/>
<path d="M84.42,72.38 L77.65,79.04" fill="none" stroke="rgb(34, 30, 31)" stroke-width="4.00" stroke-opacity="1.00" stroke-linejoin="round"/>
<path d="M91.09,76.46 L88.29,87.00" fill="none" stroke="rgb(34, 30, 31)" stroke-width="4.00" stroke-opacity="1.00" stroke-linejoin="round"/>
<path d="M101.63,79.04 L101.20,89.48" fill="none" stroke="rgb(34, 30, 31)" stroke-width="4.00" stroke-opacity="1.00" stroke-linejoin="round"/>
<path d="M111.41,76.57 L114.53,87.43" fill="none" stroke="rgb(34, 30, 31)" stroke-width="4.00" stroke-opacity="1.00" stroke-linejoin="round"/>
<path d="M118.41,72.48 L125.93,78.61" fill="none" stroke="rgb(34, 30, 31)" stroke-width="4.00" stroke-opacity="1.00" stroke-linejoin="round"/>
</g>
</svg>
